<svg width="31" height="26" viewBox="0 0 31 26" fill="none" xmlns="http://www.w3.org/2000/svg">
<path d="M9.20918 0.370937C9.80254 0.904776 9.85098 1.81778 9.31211 2.4112L4.95516 7.22838C4.68814 7.51727 4.31154 7.69181 3.91314 7.64968C3.51475 7.71588 3.12967 7.5594 2.84752 7.22838L0.425584 4.821C-0.141861 4.30943 -0.141861 3.39462 0.425584 2.83069C0.992969 2.26676 1.91328 2.26676 2.48061 2.83069L3.8193 4.15896L7.15664 0.478066C7.68945 -0.114754 8.60977 -0.162901 9.20918 0.370937ZM9.20918 10.0029C9.80254 10.5325 9.85098 11.4473 9.31211 12.0432L4.95516 16.8579C4.68814 17.1468 4.31154 17.3214 3.91314 17.2792C3.51475 17.3454 3.12967 17.189 2.84752 16.8579L0.425584 14.4506C-0.141861 13.939 -0.141861 13.0242 0.425584 12.4584C0.992969 11.8987 1.91328 11.8987 2.48061 12.4584L3.8193 13.7885L7.15664 10.1052C7.68945 9.5154 8.60977 9.46726 9.20918 10.0029ZM13.5625 3.85202C13.5625 2.78856 14.4283 1.92611 15.5 1.92611H29.0625C30.1342 1.92611 31 2.78856 31 3.85202C31 4.91729 30.1342 5.77793 29.0625 5.77793H15.5C14.4283 5.77793 13.5625 4.91729 13.5625 3.85202ZM13.5625 13.4816C13.5625 12.4163 14.4283 11.5557 15.5 11.5557H29.0625C30.1342 11.5557 31 12.4163 31 13.4816C31 14.5468 30.1342 15.4075 29.0625 15.4075H15.5C14.4283 15.4075 13.5625 14.5468 13.5625 13.4816ZM9.6875 23.1111C9.6875 22.0459 10.5533 21.1852 11.625 21.1852H29.0625C30.1342 21.1852 31 22.0459 31 23.1111C31 24.1764 30.1342 25.037 29.0625 25.037H11.625C10.5533 25.037 9.6875 24.1764 9.6875 23.1111ZM0 23.1111C0 21.5162 1.30115 20.2223 2.90625 20.2223C4.51135 20.2223 5.8125 21.5162 5.8125 23.1111C5.8125 24.706 4.51135 26 2.90625 26C1.30115 26 0 24.706 0 23.1111Z" fill="#282828" fill-opacity="0.77"/>
</svg>
