<svg width="21" height="20" viewBox="0 0 21 20" fill="none" xmlns="http://www.w3.org/2000/svg">
<path d="M19.5449 17.3302L14.8692 12.6549C15.9324 11.0765 16.457 9.10448 16.1762 7.00314C15.6973 3.42892 12.7676 0.520243 9.18944 0.0672841C3.8695 -0.605808 -0.603954 3.86715 0.069252 9.18651C0.522379 12.7658 3.43176 15.6975 7.00678 16.174C9.10835 16.4548 11.081 15.9305 12.6591 14.8671L17.3349 19.5424C17.9451 20.1525 18.9346 20.1525 19.5447 19.5424C20.1543 18.9316 20.1543 17.9395 19.5449 17.3302ZM3.09176 8.12412C3.09176 5.36738 5.33474 3.12465 8.09178 3.12465C10.8488 3.12465 13.0918 5.36738 13.0918 8.12412C13.0918 10.8809 10.8488 13.1236 8.09178 13.1236C5.33474 13.1236 3.09176 10.8816 3.09176 8.12412Z" fill="#565656"/>
</svg>
