<svg width="15" height="15" viewBox="0 0 15 15" fill="none" xmlns="http://www.w3.org/2000/svg">
<path d="M14.6572 12.9976L11.1504 9.49116C11.9479 8.3074 12.3413 6.82836 12.1307 5.25236C11.7715 2.57169 9.57422 0.390183 6.89062 0.050463C2.90066 -0.454356 -0.45443 2.90036 0.0504741 6.88988C0.390319 9.57436 2.57236 11.7731 5.25362 12.1305C6.8298 12.3411 8.30929 11.9479 9.49289 11.1504L12.9997 14.6568C13.4574 15.1144 14.1995 15.1144 14.6571 14.6568C15.1143 14.1987 15.1143 13.4546 14.6572 12.9976ZM2.31736 6.09309C2.31736 4.02554 3.99959 2.34349 6.06737 2.34349C8.13515 2.34349 9.81739 4.02554 9.81739 6.09309C9.81739 8.16064 8.13515 9.84269 6.06737 9.84269C3.99959 9.84269 2.31736 8.16123 2.31736 6.09309Z" fill="white"/>
</svg>
