<svg width="30" height="35" viewBox="0 0 30 35" fill="none" xmlns="http://www.w3.org/2000/svg">
<path d="M17.1419 2.16346V3.46154C22.03 4.46417 25.7128 8.82963 25.7128 14.0625V15.3335C25.7128 18.5179 26.8713 21.5805 28.9604 23.9603L29.4559 24.5215C30.0184 25.1638 30.159 26.0697 29.8108 26.8472C29.4626 27.6247 28.6993 28.125 27.8556 28.125H2.14272C1.29902 28.125 0.533727 27.6247 0.188076 26.8472C-0.157574 26.0697 -0.0193208 25.1638 0.541293 24.5215L1.03787 23.9603C3.12972 21.5805 4.28546 18.5179 4.28546 15.3335V14.0625C4.28546 8.82963 7.90803 4.46417 12.8564 3.46154V2.16346C12.8564 0.968825 13.814 0 14.9992 0C16.1844 0 17.1419 0.968825 17.1419 2.16346ZM14.9992 34.6154C13.8608 34.6154 12.7694 34.1624 11.9658 33.3511C11.1623 32.5398 10.7137 31.377 10.7137 30.2885H19.2846C19.2846 31.377 18.836 32.5398 18.0325 33.3511C17.2289 34.1624 16.0772 34.6154 14.9992 34.6154Z" fill="#C4C4C4"/>
</svg>
